<mxfile host="app.diagrams.net" modified="2024-02-16T16:13:29.829Z" agent="Mozilla/5.0 (X11; Linux x86_64; rv:109.0) Gecko/20100101 Firefox/119.0" etag="vR3h5N9LP_pEJvcO9856" scale="1" border="0" version="23.1.4" type="device">
  <diagram name="Page-1" id="C5eJdvvLRLpj0kCeoj5C">
    <mxGraphModel dx="1434" dy="822" grid="1" gridSize="10" guides="1" tooltips="1" connect="1" arrows="1" fold="1" page="1" pageScale="1" pageWidth="850" pageHeight="1100" math="0" shadow="0">
      <root>
        <mxCell id="0" />
        <mxCell id="1" parent="0" />
        <mxCell id="CsHvGHNRreZlyT8zkNNv-10" value="" style="edgeStyle=orthogonalEdgeStyle;rounded=0;orthogonalLoop=1;jettySize=auto;html=1;" edge="1" parent="1" source="CsHvGHNRreZlyT8zkNNv-11">
          <mxGeometry relative="1" as="geometry">
            <mxPoint x="257.5" y="410" as="targetPoint" />
          </mxGeometry>
        </mxCell>
        <mxCell id="CsHvGHNRreZlyT8zkNNv-11" value="" style="ellipse;whiteSpace=wrap;html=1;aspect=fixed;fillColor=#000000;" vertex="1" parent="1">
          <mxGeometry x="120" y="390" width="40" height="40" as="geometry" />
        </mxCell>
        <mxCell id="CsHvGHNRreZlyT8zkNNv-12" value="" style="group" vertex="1" connectable="0" parent="1">
          <mxGeometry x="510" y="500" width="55" height="55" as="geometry" />
        </mxCell>
        <mxCell id="CsHvGHNRreZlyT8zkNNv-13" value="" style="ellipse;whiteSpace=wrap;html=1;aspect=fixed;gradientColor=default;fillColor=none;" vertex="1" parent="CsHvGHNRreZlyT8zkNNv-12">
          <mxGeometry width="55" height="55" as="geometry" />
        </mxCell>
        <mxCell id="CsHvGHNRreZlyT8zkNNv-14" value="" style="ellipse;whiteSpace=wrap;html=1;aspect=fixed;fillColor=#000000;" vertex="1" parent="CsHvGHNRreZlyT8zkNNv-12">
          <mxGeometry x="7.5" y="7.5" width="40" height="40" as="geometry" />
        </mxCell>
        <mxCell id="CsHvGHNRreZlyT8zkNNv-15" value="" style="edgeStyle=orthogonalEdgeStyle;rounded=0;orthogonalLoop=1;jettySize=auto;html=1;" edge="1" parent="1" source="CsHvGHNRreZlyT8zkNNv-16">
          <mxGeometry relative="1" as="geometry">
            <mxPoint x="480" y="410" as="targetPoint" />
          </mxGeometry>
        </mxCell>
        <mxCell id="CsHvGHNRreZlyT8zkNNv-16" value="Displaying Option to rate" style="ellipse;whiteSpace=wrap;html=1;" vertex="1" parent="1">
          <mxGeometry x="260" y="380" width="120" height="60" as="geometry" />
        </mxCell>
        <mxCell id="CsHvGHNRreZlyT8zkNNv-17" value="Display Prompt" style="text;html=1;align=center;verticalAlign=middle;resizable=0;points=[];autosize=1;strokeColor=none;fillColor=none;" vertex="1" parent="1">
          <mxGeometry x="160" y="380" width="100" height="30" as="geometry" />
        </mxCell>
        <mxCell id="CsHvGHNRreZlyT8zkNNv-18" value="" style="edgeStyle=orthogonalEdgeStyle;rounded=0;orthogonalLoop=1;jettySize=auto;html=1;" edge="1" parent="1" source="CsHvGHNRreZlyT8zkNNv-19" target="CsHvGHNRreZlyT8zkNNv-14">
          <mxGeometry relative="1" as="geometry" />
        </mxCell>
        <mxCell id="CsHvGHNRreZlyT8zkNNv-19" value="Rating app" style="ellipse;whiteSpace=wrap;html=1;" vertex="1" parent="1">
          <mxGeometry x="477.5" y="380" width="120" height="60" as="geometry" />
        </mxCell>
        <mxCell id="CsHvGHNRreZlyT8zkNNv-20" value="" style="endArrow=classic;html=1;rounded=0;exitX=0.669;exitY=0.975;exitDx=0;exitDy=0;exitPerimeter=0;entryX=-0.022;entryY=0.547;entryDx=0;entryDy=0;entryPerimeter=0;" edge="1" parent="1" source="CsHvGHNRreZlyT8zkNNv-16" target="CsHvGHNRreZlyT8zkNNv-13">
          <mxGeometry width="50" height="50" relative="1" as="geometry">
            <mxPoint x="450" y="510" as="sourcePoint" />
            <mxPoint x="500" y="460" as="targetPoint" />
          </mxGeometry>
        </mxCell>
        <mxCell id="CsHvGHNRreZlyT8zkNNv-21" value="[opt-in]" style="text;html=1;align=center;verticalAlign=middle;resizable=0;points=[];autosize=1;strokeColor=none;fillColor=none;" vertex="1" parent="1">
          <mxGeometry x="400" y="380" width="60" height="30" as="geometry" />
        </mxCell>
        <mxCell id="CsHvGHNRreZlyT8zkNNv-22" value="&lt;div&gt;[opt-out]&lt;/div&gt;" style="text;html=1;align=center;verticalAlign=middle;resizable=0;points=[];autosize=1;strokeColor=none;fillColor=none;rotation=30;" vertex="1" parent="1">
          <mxGeometry x="400" y="460" width="70" height="30" as="geometry" />
        </mxCell>
        <mxCell id="CsHvGHNRreZlyT8zkNNv-23" value="&lt;div&gt;Display&amp;nbsp;&lt;/div&gt;&lt;div&gt;Thank you message&lt;/div&gt;" style="text;html=1;align=center;verticalAlign=middle;resizable=0;points=[];autosize=1;strokeColor=none;fillColor=none;" vertex="1" parent="1">
          <mxGeometry x="540" y="450" width="130" height="40" as="geometry" />
        </mxCell>
      </root>
    </mxGraphModel>
  </diagram>
</mxfile>
